# Blender v2.82 (sub 7) OBJ File: ''
# www.blender.org
mtllib Stencil.mtl
o Sphere_Sphere.001
v 0.000000 -0.296337 -1.680617
v 0.000000 0.296338 -1.680617
v 0.729192 0.296338 -1.514183
v 0.729192 -0.296337 -1.514183
v 0.000000 1.307287 -1.096945
v 0.000000 1.603626 -0.583671
v 0.253246 1.603626 -0.525871
v 0.475946 1.307287 -0.988313
v 0.000000 -1.706543 -0.000000
v 0.000000 -1.603626 -0.583672
v 0.253246 -1.603626 -0.525871
v 0.000000 -0.853271 -1.477909
v 0.641240 -0.853271 -1.331550
v 0.000000 0.853272 -1.477908
v 0.641240 0.853272 -1.331550
v 0.000000 -1.307287 -1.096945
v 0.475946 -1.307287 -0.988314
v 0.000000 1.706543 0.000000
v 0.857625 1.307287 -0.683934
v 1.155476 0.853271 -0.921461
v 1.155476 -0.853271 -0.921461
v 0.857625 -1.307287 -0.683935
v 1.313959 0.296338 -1.047848
v 0.456333 1.603626 -0.363913
v 0.456333 -1.603626 -0.363914
v 1.313959 -0.296338 -1.047848
v 0.569038 1.603626 -0.129880
v 1.069441 -1.307287 -0.244094
v 0.569038 -1.603626 -0.129880
v 1.638479 0.296338 -0.373972
v 1.638479 -0.296338 -0.373972
v 1.069441 1.307287 -0.244093
v 1.440854 -0.853271 -0.328866
v 1.440854 0.853271 -0.328866
v 0.569038 -1.603626 0.129880
v 1.638479 -0.296338 0.373972
v 1.440854 -0.853271 0.328866
v 1.069441 1.307287 0.244094
v 1.440854 0.853271 0.328866
v 1.069441 -1.307287 0.244093
v 1.638479 0.296338 0.373972
v 0.569038 1.603626 0.129880
v 1.155476 -0.853271 0.921461
v 0.857625 -1.307287 0.683933
v 1.155476 0.853271 0.921461
v 1.313958 0.296338 1.047846
v 0.456333 1.603626 0.363914
v 0.456333 -1.603626 0.363913
v 1.313958 -0.296338 1.047846
v 0.857625 1.307287 0.683933
v 0.729192 0.296337 1.514183
v 0.729192 -0.296338 1.514183
v 0.253246 1.603626 0.525870
v 0.475946 1.307287 0.988312
v 0.253246 -1.603626 0.525869
v 0.641240 -0.853272 1.331550
v 0.641240 0.853271 1.331550
v 0.475946 -1.307287 0.988312
v 0.000000 1.307287 1.096944
v 0.000000 0.853271 1.477909
v 0.000000 -0.853272 1.477908
v 0.000000 -1.307287 1.096943
v 0.000000 0.296337 1.680615
v 0.000000 1.603626 0.583672
v 0.000000 -1.603626 0.583671
v 0.000000 -0.296338 1.680615
v -0.253246 1.603626 0.525870
v -0.475946 -1.307287 0.988312
v -0.253246 -1.603626 0.525869
v -0.729192 0.296337 1.514183
v -0.729192 -0.296338 1.514183
v -0.475946 1.307287 0.988312
v -0.641240 -0.853272 1.331550
v -0.641240 0.853271 1.331550
v -1.313959 -0.296338 1.047846
v -1.155476 -0.853271 0.921461
v -0.857626 1.307287 0.683933
v -1.155476 0.853271 0.921461
v -0.857626 -1.307287 0.683933
v -1.313959 0.296338 1.047846
v -0.456333 1.603626 0.363914
v -0.456333 -1.603626 0.363913
v -1.440854 0.853271 0.328865
v -1.638479 0.296338 0.373972
v -0.569038 1.603626 0.129878
v -1.069443 -1.307287 0.244092
v -0.569038 -1.603626 0.129878
v -1.638479 -0.296338 0.373972
v -1.069443 1.307287 0.244092
v -1.440854 -0.853271 0.328864
v -0.569038 1.603626 -0.129880
v -1.069443 1.307287 -0.244093
v -0.569038 -1.603626 -0.129880
v -1.638479 -0.296338 -0.373974
v -1.440854 -0.853271 -0.328866
v -1.440854 0.853271 -0.328866
v -1.069443 -1.307287 -0.244094
v -1.638479 0.296338 -0.373973
v -1.155476 -0.853271 -0.921461
v -0.857625 -1.307287 -0.683935
v -1.155476 0.853271 -0.921461
v -1.313958 0.296338 -1.047848
v -0.456333 1.603626 -0.363913
v -0.456333 -1.603626 -0.363914
v -1.313958 -0.296338 -1.047848
v -0.857625 1.307287 -0.683934
v -0.475946 -1.307287 -0.988314
v -0.253246 -1.603626 -0.525871
v -0.729192 0.296338 -1.514183
v -0.729192 -0.296337 -1.514183
v -0.253246 1.603626 -0.525871
v -0.475946 1.307287 -0.988313
v -0.641240 -0.853271 -1.331550
v -0.641240 0.853272 -1.331550
vt 0.714286 0.444444
vt 0.714286 0.555556
vt 0.642857 0.555556
vt 0.642857 0.444444
vt 0.714286 0.777778
vt 0.714286 0.888889
vt 0.642857 0.888889
vt 0.642857 0.777778
vt 0.678572 0.000000
vt 0.714286 0.111111
vt 0.642857 0.111111
vt 0.714286 0.333333
vt 0.642857 0.333333
vt 0.714286 0.666667
vt 0.642857 0.666667
vt 0.714286 0.222222
vt 0.642857 0.222222
vt 0.678572 1.000000
vt 0.571429 0.777778
vt 0.571429 0.666667
vt 0.571429 0.333333
vt 0.571429 0.222222
vt 0.571429 0.555556
vt 0.607143 1.000000
vt 0.571429 0.888889
vt 0.571429 0.111111
vt 0.571429 0.444444
vt 0.607143 0.000000
vt 0.535714 1.000000
vt 0.500000 0.888889
vt 0.500000 0.222222
vt 0.500000 0.111111
vt 0.500000 0.555556
vt 0.500000 0.444444
vt 0.500000 0.777778
vt 0.535715 0.000000
vt 0.500000 0.333333
vt 0.500000 0.666667
vt 0.464286 0.000000
vt 0.428572 0.111111
vt 0.428572 0.444444
vt 0.428572 0.333333
vt 0.428572 0.777778
vt 0.428572 0.666667
vt 0.428572 0.222222
vt 0.428572 0.555556
vt 0.464286 1.000000
vt 0.428572 0.888889
vt 0.357143 0.333333
vt 0.357143 0.222222
vt 0.357143 0.666667
vt 0.357143 0.555556
vt 0.392857 1.000000
vt 0.357143 0.888889
vt 0.357143 0.111111
vt 0.357143 0.444444
vt 0.357143 0.777778
vt 0.392857 0.000000
vt 0.285714 0.555556
vt 0.285714 0.444444
vt 0.285714 0.888889
vt 0.285714 0.777778
vt 0.321429 0.000000
vt 0.285714 0.111111
vt 0.285714 0.333333
vt 0.285714 0.666667
vt 0.285714 0.222222
vt 0.321429 1.000000
vt 0.214286 0.777778
vt 0.214286 0.666667
vt 0.214286 0.333333
vt 0.214286 0.222222
vt 0.214286 0.555556
vt 0.250000 1.000000
vt 0.214286 0.888889
vt 0.214286 0.111111
vt 0.214286 0.444444
vt 0.250000 0.000000
vt 0.178571 1.000000
vt 0.142857 0.888889
vt 0.142857 0.222222
vt 0.142857 0.111111
vt 0.142857 0.555556
vt 0.142857 0.444444
vt 0.142857 0.777778
vt 0.178571 0.000000
vt 0.142857 0.333333
vt 0.142857 0.666667
vt 0.071429 0.444444
vt 0.071429 0.333333
vt 0.071429 0.777778
vt 0.071429 0.666667
vt 0.071429 0.222222
vt 0.071429 0.555556
vt 0.107143 1.000000
vt 0.071429 0.888889
vt 0.071429 0.111111
vt 0.107143 0.000000
vt 0.000000 0.666667
vt 0.000000 0.555556
vt 0.035714 1.000000
vt 0.000000 0.888889
vt 0.000000 0.222222
vt 0.000000 0.111111
vt 0.000000 0.444444
vt 0.000000 0.777778
vt 0.035714 0.000000
vt 0.000000 0.333333
vt 1.000000 0.777778
vt 1.000000 0.888889
vt 0.928571 0.888889
vt 0.928571 0.777778
vt 0.964286 0.000000
vt 1.000000 0.111111
vt 0.928571 0.111111
vt 1.000000 0.333333
vt 1.000000 0.444444
vt 0.928571 0.444444
vt 0.928571 0.333333
vt 1.000000 0.666667
vt 0.928571 0.666667
vt 1.000000 0.222222
vt 0.928571 0.222222
vt 1.000000 0.555556
vt 0.928571 0.555556
vt 0.964286 1.000000
vt 0.857143 0.333333
vt 0.857143 0.222222
vt 0.857143 0.666667
vt 0.857143 0.555556
vt 0.892857 1.000000
vt 0.857143 0.888889
vt 0.857143 0.111111
vt 0.857143 0.444444
vt 0.857143 0.777778
vt 0.892857 0.000000
vt 0.785714 0.222222
vt 0.785714 0.111111
vt 0.785714 0.555556
vt 0.785714 0.444444
vt 0.785714 0.888889
vt 0.785714 0.777778
vt 0.821429 0.000000
vt 0.785714 0.333333
vt 0.785714 0.666667
vt 0.821429 1.000000
vt 0.750000 1.000000
vt 0.750000 0.000000
vn 0.2225 0.0000 -0.9749
vn 0.1134 0.8604 -0.4968
vn 0.0396 -0.9840 -0.1735
vn 0.2097 -0.3344 -0.9188
vn 0.1722 0.6332 -0.7546
vn 0.1722 -0.6332 -0.7546
vn 0.2097 0.3344 -0.9188
vn 0.0396 0.9840 -0.1735
vn 0.1134 -0.8604 -0.4968
vn 0.4826 0.6332 -0.6051
vn 0.4826 -0.6332 -0.6051
vn 0.5876 0.3344 -0.7368
vn 0.1110 0.9840 -0.1391
vn 0.3177 -0.8604 -0.3984
vn 0.6235 0.0000 -0.7818
vn 0.3177 0.8604 -0.3984
vn 0.1110 -0.9840 -0.1391
vn 0.5876 -0.3344 -0.7368
vn 0.1603 0.9840 -0.0772
vn 0.4591 -0.8604 -0.2211
vn 0.9010 0.0000 -0.4339
vn 0.4591 0.8604 -0.2211
vn 0.1603 -0.9840 -0.0772
vn 0.8491 -0.3344 -0.4089
vn 0.6974 0.6332 -0.3358
vn 0.6974 -0.6332 -0.3358
vn 0.8491 0.3344 -0.4089
vn 0.1780 -0.9840 0.0000
vn 0.9424 -0.3344 -0.0000
vn 0.7740 0.6332 0.0000
vn 0.7740 -0.6332 -0.0000
vn 0.9424 0.3344 0.0000
vn 0.1780 0.9840 0.0000
vn 0.5096 -0.8604 0.0000
vn 1.0000 -0.0000 0.0000
vn 0.5096 0.8604 0.0000
vn 0.6974 -0.6332 0.3358
vn 0.8491 0.3344 0.4089
vn 0.1603 0.9840 0.0772
vn 0.4591 -0.8604 0.2211
vn 0.9010 -0.0000 0.4339
vn 0.4591 0.8604 0.2211
vn 0.1603 -0.9840 0.0772
vn 0.8491 -0.3344 0.4089
vn 0.6974 0.6332 0.3358
vn 0.6235 0.0000 0.7818
vn 0.3177 0.8604 0.3984
vn 0.1110 -0.9840 0.1391
vn 0.5876 -0.3344 0.7368
vn 0.4826 0.6332 0.6051
vn 0.4826 -0.6332 0.6051
vn 0.5876 0.3344 0.7368
vn 0.1110 0.9840 0.1391
vn 0.3177 -0.8604 0.3984
vn 0.1722 0.6332 0.7546
vn 0.1722 -0.6332 0.7546
vn 0.2097 0.3344 0.9188
vn 0.0396 0.9840 0.1735
vn 0.1134 -0.8604 0.4968
vn 0.2225 0.0000 0.9749
vn 0.1134 0.8604 0.4968
vn 0.0396 -0.9840 0.1735
vn 0.2097 -0.3344 0.9188
vn -0.0396 0.9840 0.1735
vn -0.1134 -0.8604 0.4968
vn -0.2225 0.0000 0.9749
vn -0.1134 0.8604 0.4968
vn -0.0396 -0.9840 0.1735
vn -0.2097 -0.3344 0.9188
vn -0.1722 0.6332 0.7546
vn -0.1722 -0.6332 0.7546
vn -0.2097 0.3344 0.9188
vn -0.5876 -0.3344 0.7368
vn -0.4826 0.6332 0.6051
vn -0.4826 -0.6332 0.6051
vn -0.5876 0.3344 0.7368
vn -0.1110 0.9840 0.1391
vn -0.3177 -0.8604 0.3984
vn -0.6235 0.0000 0.7818
vn -0.3177 0.8604 0.3984
vn -0.1110 -0.9840 0.1391
vn -0.8491 0.3344 0.4089
vn -0.1603 0.9840 0.0772
vn -0.4591 -0.8604 0.2211
vn -0.9010 -0.0000 0.4339
vn -0.4591 0.8604 0.2211
vn -0.1603 -0.9840 0.0772
vn -0.8491 -0.3344 0.4089
vn -0.6974 0.6332 0.3358
vn -0.6974 -0.6332 0.3358
vn -0.5096 0.8604 0.0000
vn -0.1780 -0.9840 0.0000
vn -0.9424 -0.3344 -0.0000
vn -0.7740 0.6332 0.0000
vn -0.7740 -0.6332 -0.0000
vn -0.9424 0.3344 0.0000
vn -0.1780 0.9840 0.0000
vn -0.5096 -0.8604 0.0000
vn -1.0000 0.0000 0.0000
vn -0.6974 -0.6332 -0.3358
vn -0.8491 0.3344 -0.4089
vn -0.1603 0.9840 -0.0772
vn -0.4591 -0.8604 -0.2211
vn -0.9010 0.0000 -0.4339
vn -0.4591 0.8604 -0.2211
vn -0.1603 -0.9840 -0.0772
vn -0.8491 -0.3344 -0.4089
vn -0.6974 0.6332 -0.3358
vn -0.3177 -0.8604 -0.3984
vn -0.6235 0.0000 -0.7818
vn -0.3177 0.8604 -0.3984
vn -0.1110 -0.9840 -0.1391
vn -0.5876 -0.3344 -0.7368
vn -0.4826 0.6332 -0.6051
vn -0.4826 -0.6332 -0.6051
vn -0.5876 0.3344 -0.7368
vn -0.1110 0.9840 -0.1391
vn -0.2097 -0.3344 -0.9188
vn -0.1722 0.6332 -0.7546
vn -0.1722 -0.6332 -0.7546
vn -0.2097 0.3344 -0.9188
vn -0.0396 0.9840 -0.1735
vn -0.1134 -0.8604 -0.4968
vn -0.2225 0.0000 -0.9749
vn -0.1134 0.8604 -0.4968
vn -0.0396 -0.9840 -0.1735
usemtl Material.002
s 1
f 1/1/1 2/2/1 3/3/1 4/4/1
f 5/5/2 6/6/2 7/7/2 8/8/2
f 9/9/3 10/10/3 11/11/3
f 12/12/4 1/1/4 4/4/4 13/13/4
f 14/14/5 5/5/5 8/8/5 15/15/5
f 16/16/6 12/12/6 13/13/6 17/17/6
f 2/2/7 14/14/7 15/15/7 3/3/7
f 6/6/8 18/18/8 7/7/8
f 10/10/9 16/16/9 17/17/9 11/11/9
f 15/15/10 8/8/10 19/19/10 20/20/10
f 17/17/11 13/13/11 21/21/11 22/22/11
f 3/3/12 15/15/12 20/20/12 23/23/12
f 7/7/13 18/24/13 24/25/13
f 11/11/14 17/17/14 22/22/14 25/26/14
f 4/4/15 3/3/15 23/23/15 26/27/15
f 8/8/16 7/7/16 24/25/16 19/19/16
f 9/28/17 11/11/17 25/26/17
f 13/13/18 4/4/18 26/27/18 21/21/18
f 24/25/19 18/29/19 27/30/19
f 25/26/20 22/22/20 28/31/20 29/32/20
f 26/27/21 23/23/21 30/33/21 31/34/21
f 19/19/22 24/25/22 27/30/22 32/35/22
f 9/36/23 25/26/23 29/32/23
f 21/21/24 26/27/24 31/34/24 33/37/24
f 20/20/25 19/19/25 32/35/25 34/38/25
f 22/22/26 21/21/26 33/37/26 28/31/26
f 23/23/27 20/20/27 34/38/27 30/33/27
f 9/39/28 29/32/28 35/40/28
f 33/37/29 31/34/29 36/41/29 37/42/29
f 34/38/30 32/35/30 38/43/30 39/44/30
f 28/31/31 33/37/31 37/42/31 40/45/31
f 30/33/32 34/38/32 39/44/32 41/46/32
f 27/30/33 18/47/33 42/48/33
f 29/32/34 28/31/34 40/45/34 35/40/34
f 31/34/35 30/33/35 41/46/35 36/41/35
f 32/35/36 27/30/36 42/48/36 38/43/36
f 40/45/37 37/42/37 43/49/37 44/50/37
f 41/46/38 39/44/38 45/51/38 46/52/38
f 42/48/39 18/53/39 47/54/39
f 35/40/40 40/45/40 44/50/40 48/55/40
f 36/41/41 41/46/41 46/52/41 49/56/41
f 38/43/42 42/48/42 47/54/42 50/57/42
f 9/58/43 35/40/43 48/55/43
f 37/42/44 36/41/44 49/56/44 43/49/44
f 39/44/45 38/43/45 50/57/45 45/51/45
f 49/56/46 46/52/46 51/59/46 52/60/46
f 50/57/47 47/54/47 53/61/47 54/62/47
f 9/63/48 48/55/48 55/64/48
f 43/49/49 49/56/49 52/60/49 56/65/49
f 45/51/50 50/57/50 54/62/50 57/66/50
f 44/50/51 43/49/51 56/65/51 58/67/51
f 46/52/52 45/51/52 57/66/52 51/59/52
f 47/54/53 18/68/53 53/61/53
f 48/55/54 44/50/54 58/67/54 55/64/54
f 57/66/55 54/62/55 59/69/55 60/70/55
f 58/67/56 56/65/56 61/71/56 62/72/56
f 51/59/57 57/66/57 60/70/57 63/73/57
f 53/61/58 18/74/58 64/75/58
f 55/64/59 58/67/59 62/72/59 65/76/59
f 52/60/60 51/59/60 63/73/60 66/77/60
f 54/62/61 53/61/61 64/75/61 59/69/61
f 9/78/62 55/64/62 65/76/62
f 56/65/63 52/60/63 66/77/63 61/71/63
f 64/75/64 18/79/64 67/80/64
f 65/76/65 62/72/65 68/81/65 69/82/65
f 66/77/66 63/73/66 70/83/66 71/84/66
f 59/69/67 64/75/67 67/80/67 72/85/67
f 9/86/68 65/76/68 69/82/68
f 61/71/69 66/77/69 71/84/69 73/87/69
f 60/70/70 59/69/70 72/85/70 74/88/70
f 62/72/71 61/71/71 73/87/71 68/81/71
f 63/73/72 60/70/72 74/88/72 70/83/72
f 73/87/73 71/84/73 75/89/73 76/90/73
f 74/88/74 72/85/74 77/91/74 78/92/74
f 68/81/75 73/87/75 76/90/75 79/93/75
f 70/83/76 74/88/76 78/92/76 80/94/76
f 67/80/77 18/95/77 81/96/77
f 69/82/78 68/81/78 79/93/78 82/97/78
f 71/84/79 70/83/79 80/94/79 75/89/79
f 72/85/80 67/80/80 81/96/80 77/91/80
f 9/98/81 69/82/81 82/97/81
f 80/94/82 78/92/82 83/99/82 84/100/82
f 81/96/83 18/101/83 85/102/83
f 82/97/84 79/93/84 86/103/84 87/104/84
f 75/89/85 80/94/85 84/100/85 88/105/85
f 77/91/86 81/96/86 85/102/86 89/106/86
f 9/107/87 82/97/87 87/104/87
f 76/90/88 75/89/88 88/105/88 90/108/88
f 78/92/89 77/91/89 89/106/89 83/99/89
f 79/93/90 76/90/90 90/108/90 86/103/90
f 89/109/91 85/110/91 91/111/91 92/112/91
f 9/113/92 87/114/92 93/115/92
f 90/116/93 88/117/93 94/118/93 95/119/93
f 83/120/94 89/109/94 92/112/94 96/121/94
f 86/122/95 90/116/95 95/119/95 97/123/95
f 84/124/96 83/120/96 96/121/96 98/125/96
f 85/110/97 18/126/97 91/111/97
f 87/114/98 86/122/98 97/123/98 93/115/98
f 88/117/99 84/124/99 98/125/99 94/118/99
f 97/123/100 95/119/100 99/127/100 100/128/100
f 98/125/101 96/121/101 101/129/101 102/130/101
f 91/111/102 18/131/102 103/132/102
f 93/115/103 97/123/103 100/128/103 104/133/103
f 94/118/104 98/125/104 102/130/104 105/134/104
f 92/112/105 91/111/105 103/132/105 106/135/105
f 9/136/106 93/115/106 104/133/106
f 95/119/107 94/118/107 105/134/107 99/127/107
f 96/121/108 92/112/108 106/135/108 101/129/108
f 104/133/109 100/128/109 107/137/109 108/138/109
f 105/134/110 102/130/110 109/139/110 110/140/110
f 106/135/111 103/132/111 111/141/111 112/142/111
f 9/143/112 104/133/112 108/138/112
f 99/127/113 105/134/113 110/140/113 113/144/113
f 101/129/114 106/135/114 112/142/114 114/145/114
f 100/128/115 99/127/115 113/144/115 107/137/115
f 102/130/116 101/129/116 114/145/116 109/139/116
f 103/132/117 18/146/117 111/141/117
f 113/144/118 110/140/118 1/1/118 12/12/118
f 114/145/119 112/142/119 5/5/119 14/14/119
f 107/137/120 113/144/120 12/12/120 16/16/120
f 109/139/121 114/145/121 14/14/121 2/2/121
f 111/141/122 18/147/122 6/6/122
f 108/138/123 107/137/123 16/16/123 10/10/123
f 110/140/124 109/139/124 2/2/124 1/1/124
f 112/142/125 111/141/125 6/6/125 5/5/125
f 9/148/126 108/138/126 10/10/126
